<svg id="Layer_1" data-name="Layer 1" xmlns="http://www.w3.org/2000/svg" viewBox="0 0 548.11 291.81"><defs><style>.cls-1{fill:#662483;}</style></defs><path class="cls-1" d="M649.71,343c-2.39,5.1-3.53,10.09-4.68,19-1.87,15.5-2.29,16.75-11.34,39.63-4.26,10.61-8.42,21.85-9.26,25.18-2.08,8.11-2.91,26.84-2,42.86l.83,13.42-3.64,2.39a33.83,33.83,0,0,1-8.12,3.54c-5.82,1.46-11.34,6.45-12.9,11.65-.93,3.23-.93,6.14,0,13.11.73,5,1.25,16.75,1.15,26.21-.11,14.46.21,18.52,2.08,25.7A75.72,75.72,0,0,1,604,579.37v5.1l-14.25.62c-13.63.52-25.28,2.29-32,4.89-1.77.62-9,1.56-16.13,2s-14,1.35-15.29,2a11.33,11.33,0,0,1-4.89,1.25,54.11,54.11,0,0,0-9.15,1.67c-5.31,1.45-9.68,1.66-23.72,1.14-25.8-1-43.38-4-67.21-11.55-15.29-4.78-26.32-6.34-38.28-5.3-5.2.41-11.13.83-13.11.93-2.7.11-3.74.63-4,2.08-.62,3,2.6,4.79,8.53,4.79,7.8,0,17.48,2,21.95,4.47,3.23,1.87,4.27,3.33,5.83,8,1.87,5.83,5,9.37,8.22,9.37,1,0,5.2-1.46,9.15-3.13,5.31-2.18,9.05-3.12,13.21-3.12,7.08,0,18.21,3.54,27.26,8.64,15.29,8.74,29.44,12.07,41.92,10.09,3.75-.63,13.84-1.56,22.37-2.08,13.21-.73,17.58-.63,28.61,1,18.2,2.7,54.3,5.72,69.18,5.72,11.75,0,13-.21,21.85-3.64l9.36-3.64,16.64.21a325,325,0,0,0,33.29-1.36c9.16-.83,31.63-2,49.94-2.49,33.7-.94,51.08-2.71,69.18-6.87,6.45-1.56,13.32-1.87,39.53-2,30.59-.1,44.73-.83,49.73-2.7l2.29-.94-2.81-5.09c-2.6-4.58-3.64-5.52-9-7.49l-6-2.29L886.18,592c-5.52,1.24-14.46,2.91-19.77,3.74-9.47,1.35-10.19,1.35-29.13-1.77-24-4-48.06-4.68-56.9-1.56-6.25,2.08-3.75,2.5-46.71-7.07-16.65-3.64-32.25-7-34.65-7.39-6.13-.93-10.92-4.16-16.64-11.23-3-3.75-8.64-8.64-14.36-12.59l-9.36-6.35.31-5.1c.11-3.32,1.46-7.38,3.43-11.33,4.58-8.64,14.05-23.31,18.11-27.78a66.22,66.22,0,0,0,6.34-8.84c1.56-2.81,5.93-10.3,9.57-16.54a143.47,143.47,0,0,0,10.2-21.23c4-10.92,7.9-17.79,15.08-25.69,5.41-6,10.51-13.32,18.52-26.74,3.23-5.3,6.14-9.05,7.07-9.05s5.21-2.29,9.58-5,9.57-5.62,11.54-6.24c4.48-1.57,8.33-4.06,8.33-5.41,0-.52-2.4-.11-5.31,1.14s-5.62,1.77-6,1.35-.11-.93.62-1.14c2.39-.83,12.8-8.74,12.8-9.78,0-1.56-2.29-1.15-6,1.14-5.2,3.23-5.2,2.5,0-1.45s7-6.87,4.48-6.87c-.94,0-4.79,2.19-8.74,4.79-7.81,5.09-12.59,6-5.31.93,6-4.16,10.3-9.88,7.39-9.88-.52,0-6.14,3.54-12.59,7.91-10.92,7.49-11.65,7.8-13,6-3.75-5.2-4.58-6-5.21-5.41-.41.42-.2,2.18.42,4.06a44.83,44.83,0,0,1,1.14,10.71v7.39L726.8,404.28c-8.11,8-15.81,16.65-17.37,19.25-2.4,4.26-14.36,16.75-15.82,16.64a20,20,0,0,1-3.43-4.16,22.66,22.66,0,0,0-19-9.78c-6.76.11-11.34,1.88-16.95,6.77-3.54,3.12-4.37,3.43-8.33,2.28-2.28-.52-2.39-1-2-5.93a74.2,74.2,0,0,1,2.18-11,130.54,130.54,0,0,0,2.5-17.17c.73-8,1.87-13.73,3.85-19.24,2.6-7,2.81-8.53,2.08-15.61-.42-4.26-.73-12.79-.63-19s-.1-11.13-.41-11.13S651.38,339.26,649.71,343Zm-6.13,95.08c0,.63-1.88,3.12-4.17,5.62s-4.16,4.79-4.16,5.1,2.08,3,4.68,6,4.37,5.72,4.17,6c-1,.93-9.78-9.68-9.89-11.86,0-1.25,1.88-4,4.16-6.14s4.17-4.37,4.17-4.89.2-.94.52-.94S643.58,437.57,643.58,438.09Z" transform="translate(-365.94 -336.14)"/></svg>